# xmcd
#
# Track frame offsets: 
#        150
#        12608
#        20825
#        29286
#        42526
#        55667
#        68321
#        77752
#        86762
#        97769
#        109898
#        122049
#        134074
#        143884
#        155892
#        169867
#        181251
#        190309
#        198452
#        209406
#        220314
#        228751
#        236384
#        247807
#        259383
#        270368
#        284425
#        292814
#        306040
#
# Disc length: 4217 seconds
#
# Revision: 0
# Processed by: cddbd v1.5.2PL0 Copyright (c) Steve Scherf et al.
# Submitted via: ExactAudioCopy v1.2
#
DISCID=a510771d
DTITLE=Jerry Lee Lewis - Jerry Lee Lewis - Rock' N' Roll Master Works
DYEAR=2015
DGENRE=Rock and Roll
TTITLE0=Crazy Arms
TTITLE1=End of the Road
TTITLE2=Great Ball of Fire
TTITLE3=You Win Again
TTITLE4=Whole Lot of Shakin' Going On
TTITLE5=It'll Be Me
TTITLE6=Old Black Joe
TTITLE7=Baby, Baby, Bye Bye
TTITLE8=Mean Woman Blues
TTITLE9=I'm Feeling Sorry
TTITLE10=Breathless
TTITLE11=It Hurt Me So
TTITLE12=I'll Sail My Ship Alone
TTITLE13=Break Up
TTITLE14=I'll Make It All Up to You
TTITLE15=High School Confidential
TTITLE16=Don't Be Cruel
TTITLE17=Ubangi Stomp
TTITLE18=Little Queenie
TTITLE19=I Could Never Be Ashamed of You
TTITLE20=Lovin' Up a Storm
TTITLE21=Big Blon' Baby
TTITLE22=John Henry
TTITLE23=Hang Up My Rock and Roll Shoes
TTITLE24=What'd I Say
TTITLE25=Cold Cold Heart
TTITLE26=Save The last Dance For Me
TTITLE27=SweetLittle Sixteen
TTITLE28=Good Golly Miss Molly
EXTD=
EXTT0=
EXTT1=
EXTT2=
EXTT3=
EXTT4=
EXTT5=
EXTT6=
EXTT7=
EXTT8=
EXTT9=
EXTT10=
EXTT11=
EXTT12=
EXTT13=
EXTT14=
EXTT15=
EXTT16=
EXTT17=
EXTT18=
EXTT19=
EXTT20=
EXTT21=
EXTT22=
EXTT23=
EXTT24=
EXTT25=
EXTT26=
EXTT27=
EXTT28=
PLAYORDER=
